<svg xmlns="http://www.w3.org/2000/svg" viewBox="0 0 800 600" role="img" aria-labelledby="title desc">
  <title id="title">Comic panel board</title>
  <desc id="desc">Illustration of comic pages pinned on a board.</desc>
  <rect width="800" height="600" fill="#fffaee"/>
  <rect x="96" y="80" width="608" height="440" rx="28" fill="#d6a56a"/>
  <rect x="158" y="132" width="182" height="142" rx="14" fill="#fff"/>
  <rect x="372" y="132" width="270" height="142" rx="14" fill="#fff"/>
  <rect x="158" y="306" width="232" height="154" rx="14" fill="#fff"/>
  <rect x="422" y="306" width="220" height="154" rx="14" fill="#fff"/>
  <circle cx="182" cy="156" r="10" fill="#ef4444"/>
  <circle cx="396" cy="156" r="10" fill="#3b82f6"/>
  <circle cx="182" cy="330" r="10" fill="#10b981"/>
  <circle cx="446" cy="330" r="10" fill="#f59e0b"/>
  <path d="M202 212h92M202 236h70M402 206h180M402 230h144M202 384h132M202 408h104M466 384h118M466 408h84" stroke="#1f2937" stroke-width="12" stroke-linecap="round"/>
</svg>
